<svg viewBox="0 0 175 46" fill="none" >
<path fill-rule="evenodd" clip-rule="evenodd" d="M118.754 44.6975C117.528 44.6975 116.413 44.2517 115.521 43.4714L116.302 42.4682C117.082 43.137 117.751 43.4714 118.754 43.4714C119.646 43.4714 120.092 43.137 120.092 42.4682C120.092 41.9109 119.757 41.5765 118.308 41.2421C116.636 40.7963 115.744 40.3504 115.744 38.9014C115.744 37.5638 116.859 36.6721 118.42 36.6721C119.534 36.6721 120.426 37.0065 121.206 37.6753L120.426 38.6784C119.757 38.1211 118.977 37.8982 118.308 37.8982C117.528 37.8982 117.082 38.344 117.082 38.7899C117.082 39.3472 117.416 39.6816 118.977 40.016C120.649 40.4619 121.429 41.0192 121.429 42.3568C121.541 43.8058 120.426 44.6975 118.754 44.6975ZM163.786 5.79627H158.101C157.99 5.79627 157.767 5.68481 157.767 5.57334V1.56061C157.767 1.44914 157.878 1.33768 158.101 1.33768H174.263C174.375 1.33768 174.486 1.44914 174.486 1.56061V5.46188C174.486 5.57334 174.375 5.68481 174.263 5.68481H168.579V20.9555C168.579 21.067 168.467 21.1784 168.356 21.1784H164.009C163.897 21.1784 163.786 21.067 163.786 20.9555V5.79627V5.79627ZM14.3113 13.5988L12.7507 9.80901V9.58608L14.8686 4.4587C14.98 4.1243 15.3144 4.1243 15.4259 4.4587L22.4482 20.9555C22.5597 21.1784 22.4482 21.2899 22.2253 21.2899H17.7667C17.6552 21.2899 17.5437 21.1784 17.5437 21.067L16.2062 17.8345H7.28896L6.06284 21.1784C6.06284 21.2899 5.83991 21.4014 5.83991 21.4014H1.38131C1.15838 21.4014 1.04692 21.1784 1.15838 21.067L9.51826 1.22621C9.51826 1.22621 9.62972 1.11475 9.74119 1.11475H13.7539C13.8654 1.11475 13.9769 1.22621 13.9769 1.33768V1.44914V1.67207L9.0724 13.5988H14.3113ZM30.3622 1.56061C30.3622 1.44914 30.4737 1.33768 30.5851 1.33768H34.9323C35.0437 1.33768 35.2667 1.44914 35.2667 1.56061V9.36315L42.6234 1.33768L42.8463 1.22621H48.0851C48.4195 1.22621 48.531 1.44914 48.3081 1.67207L40.5055 9.80901L48.6425 20.844C48.8654 21.067 48.7539 21.2899 48.4195 21.2899H43.2921L43.0692 21.1784L37.273 13.153L35.3781 15.1593V20.9555C35.3781 21.067 35.2667 21.1784 35.0437 21.1784H30.6966C30.5851 21.1784 30.4737 21.067 30.4737 20.9555V1.56061H30.3622ZM56.3335 1.56061C56.3335 1.44914 56.445 1.33768 56.5565 1.33768H60.9036C61.0151 1.33768 61.1265 1.44914 61.1265 1.56061V9.36315L68.5947 1.33768L68.8176 1.22621H73.945C74.2794 1.22621 74.3909 1.44914 74.1679 1.67207L66.3654 9.80901L74.5023 20.844C74.7253 21.067 74.6138 21.2899 74.2794 21.2899H69.152L68.9291 21.1784L63.1329 13.153L61.238 15.1593V20.9555C61.238 21.067 61.1265 21.1784 61.0151 21.1784H56.6679C56.5565 21.1784 56.445 21.067 56.445 20.9555V1.56061H56.3335ZM81.5246 12.7071V1.56061C81.5246 1.44914 81.6361 1.33768 81.7476 1.33768H86.0947C86.2062 1.33768 86.3176 1.44914 86.3176 1.56061V12.5956C86.3176 15.6052 87.7667 17.1657 90.2189 17.1657C92.6711 17.1657 94.1202 15.7167 94.1202 12.8186V1.67207C94.1202 1.56061 94.2316 1.44914 94.3431 1.44914H98.5788C98.6902 1.44914 98.8017 1.56061 98.8017 1.67207V12.7071C98.8017 18.7262 95.3463 21.8472 89.996 21.8472C84.8686 21.6243 81.5246 18.5033 81.5246 12.7071ZM117.639 10.7007C119.646 10.7007 120.649 9.69755 120.649 8.2485C120.649 6.57653 119.534 5.68481 117.528 5.68481H113.292V21.067C113.292 21.1784 113.181 21.2899 113.069 21.2899H108.834C108.722 21.2899 108.611 21.1784 108.611 21.067V1.56061C108.611 1.44914 108.722 1.33768 108.834 1.33768H117.974C120.537 1.33768 122.544 2.00647 123.881 3.34405C124.996 4.4587 125.665 6.13067 125.665 8.02557C125.665 11.2581 123.993 13.2644 121.652 14.2676L126.222 20.9555C126.334 21.1784 126.222 21.4014 125.999 21.4014H120.983L120.76 21.2899L116.636 15.1593H115.633C115.521 15.1593 115.41 15.0479 115.41 14.9364V11.0351C115.41 10.9237 115.521 10.8122 115.633 10.8122H117.639V10.7007ZM145.617 13.5988L144.056 9.80901V9.58608L146.174 4.4587C146.286 4.1243 146.62 4.1243 146.732 4.4587L153.754 20.9555C153.865 21.1784 153.754 21.2899 153.531 21.2899H149.072C148.961 21.2899 148.849 21.1784 148.849 21.067L147.512 17.8345H138.818L137.369 21.1784C137.369 21.2899 137.146 21.4014 137.146 21.4014H132.799C132.576 21.4014 132.464 21.1784 132.576 21.067L140.935 1.44914C140.935 1.33768 141.158 1.22621 141.158 1.22621H145.171C145.283 1.22621 145.394 1.33768 145.394 1.44914V1.56061V1.78354L140.49 13.8218H145.617V13.5988ZM59.2316 44.6975C58.0055 44.6975 56.8909 44.2517 55.9992 43.4714L56.7794 42.4682C57.5597 43.137 58.2285 43.4714 59.2316 43.4714C60.1234 43.4714 60.5692 43.137 60.5692 42.4682C60.5692 41.9109 60.2348 41.5765 58.7858 41.2421C57.1138 40.7963 56.2221 40.3504 56.2221 38.9014C56.2221 37.5638 57.3367 36.6721 58.8972 36.6721C60.0119 36.6721 60.9036 37.0065 61.6839 37.6753L60.9036 38.6784C60.2348 38.1211 59.4546 37.8982 58.7858 37.8982C58.0055 37.8982 57.5597 38.344 57.5597 38.7899C57.5597 39.3472 57.8941 39.6816 59.4546 40.016C61.1265 40.4619 61.9068 41.0192 61.9068 42.3568C62.0183 43.8058 60.7921 44.6975 59.2316 44.6975ZM68.0374 44.5861V38.0096H65.5851V36.7835H71.9386V38.0096H69.3749V44.5861H68.0374ZM79.0724 44.6975C77.066 44.6975 75.7284 43.5829 75.7284 41.2421V36.7835H77.066V41.2421C77.066 42.6912 77.8463 43.4714 79.0724 43.4714C80.2985 43.4714 81.0788 42.6912 81.0788 41.2421V36.7835H82.4163V41.2421C82.4163 43.4714 81.0788 44.6975 79.0724 44.6975ZM86.7635 44.5861V36.7835H89.6616C92.1138 36.7835 93.7858 38.4555 93.7858 40.6848C93.7858 42.9141 92.1138 44.5861 89.6616 44.5861H86.7635ZM88.1011 43.36H89.6616C91.3335 43.36 92.3367 42.2453 92.3367 40.6848C92.3367 39.1243 91.2221 38.0096 89.6616 38.0096H88.1011V43.36ZM98.0214 44.5861H99.4705V36.7835H98.1329V44.5861H98.0214ZM107.719 44.6975C105.267 44.6975 103.595 42.9141 103.595 40.6848C103.595 38.4555 105.267 36.6721 107.719 36.6721C110.171 36.6721 111.843 38.4555 111.843 40.6848C111.843 42.8026 110.171 44.6975 107.719 44.6975ZM107.83 43.4714C109.391 43.4714 110.506 42.2453 110.506 40.6848C110.506 39.1243 109.391 37.8982 107.83 37.8982C106.27 37.8982 105.155 39.1243 105.155 40.6848C105.155 42.1339 106.27 43.4714 107.83 43.4714Z" fill="white"/>
</svg>
