<?xml version="1.0" encoding="UTF-8"?>
<svg width="180px" height="180px" viewBox="0 0 180 180" version="1.1" xmlns="http://www.w3.org/2000/svg" xmlns:xlink="http://www.w3.org/1999/xlink">
    <!-- Generator: Sketch 54.1 (76490) - https://sketchapp.com -->
    <title>favicon</title>
    <desc>Created with Sketch.</desc>
    <g id="favicon" stroke="none" stroke-width="1" fill="none" fill-rule="evenodd">
        <g id="logo" transform="translate(29.000000, 28.000000)" fill="#000000" fill-rule="nonzero">
            <path d="M119.043531,124.88552 L93.6671312,124.88552 C93.0240525,124.88552 92.4503251,124.454187 92.2107465,123.817456 L84.8594716,104.236299 L35.6387131,104.236299 L28.3000475,123.817456 C28.060469,124.454187 27.4741323,124.88552 26.8373581,124.88552 L2.0914279,124.88552 C1.56183347,124.88552 1.07006722,124.591117 0.780051219,124.111858 C0.490035221,123.625753 0.433292964,123.030102 0.641347919,122.489224 L47.9265647,1.82547699 C48.1787526,1.19559361 48.7461751,0.784800099 49.376645,0.784800099 L71.758314,0.784800099 C72.3950883,0.784800099 72.9688157,1.19559361 73.2083943,1.82547699 L73.4290583,2.39374135 C73.5929807,2.81822798 73.5992852,3.29064051 73.441668,3.71512714 L45.5938275,77.5415675 L74.9043572,77.5415675 L66.1660493,54.2427291 C66.0084317,53.825089 66.0084317,53.3663694 66.1660493,52.9487293 L78.012572,21.5367189 C78.2521506,20.899989 78.825878,20.4755024 79.4626523,20.4755024 C79.9607232,20.3659574 80.6668492,20.8794493 80.9253415,21.5161793 L120.493611,122.489224 C120.701666,123.030102 120.651229,123.625753 120.361212,124.111858 C120.064892,124.591117 119.573125,124.88552 119.043531,124.88552" id="Fill-1"></path>
        </g>
    </g>
</svg>